<?xml version="1.0" encoding="UTF-8"?>
<!DOCTYPE svg PUBLIC "-//W3C//DTD SVG 1.1//EN" "http://www.w3.org/Graphics/SVG/1.1/DTD/svg11.dtd">
<svg xmlns="http://www.w3.org/2000/svg" version="1.1" width="1280px" height="1280px" style="shape-rendering:geometricPrecision; text-rendering:geometricPrecision; image-rendering:optimizeQuality; fill-rule:evenodd; clip-rule:evenodd" xmlns:xlink="http://www.w3.org/1999/xlink">
<g><path style="opacity:1" fill="#fefefe" d="M -0.5,-0.5 C 426.167,-0.5 852.833,-0.5 1279.5,-0.5C 1279.5,426.167 1279.5,852.833 1279.5,1279.5C 1183.5,1279.5 1087.5,1279.5 991.5,1279.5C 989.395,1271.38 988.561,1263.04 989,1254.5C 995.126,1250.8 998.959,1245.3 1000.5,1238C 997.616,1227.66 993.782,1217.83 989,1208.5C 988.374,1206.29 988.541,1204.12 989.5,1202C 980.291,1178.77 970.124,1155.94 959,1133.5C 957.289,1130.04 955.123,1127.04 952.5,1124.5C 951.721,1121.46 950.387,1118.79 948.5,1116.5C 940.078,1100.67 929.912,1086 918,1072.5C 915.648,1067.44 912.148,1063.44 907.5,1060.5C 906.667,1058.83 905.833,1057.17 905,1055.5C 899.298,1049.63 893.465,1043.96 887.5,1038.5C 886.089,1036.09 884.089,1034.42 881.5,1033.5C 875.527,1028.76 869.527,1023.92 863.5,1019C 861.158,1017.83 858.824,1016.66 856.5,1015.5C 954.759,972.079 1023.93,900.746 1064,801.5C 1064.35,798.424 1065.01,795.424 1066,792.5C 1070.38,783.971 1073.05,774.971 1074,765.5C 1075.71,763.044 1077.04,760.377 1078,757.5C 1080.51,745.084 1083.01,732.751 1085.5,720.5C 1086.48,716.684 1087.15,712.684 1087.5,708.5C 1088.49,702.875 1089.16,697.208 1089.5,691.5C 1090.27,690.737 1090.77,689.737 1091,688.5C 1091.5,681.508 1091.67,674.508 1091.5,667.5C 1091.94,655.776 1092.28,644.109 1092.5,632.5C 1092.84,623.938 1092.18,615.605 1090.5,607.5C 1088.34,581.524 1084.18,555.857 1078,530.5C 1075.83,524.16 1073.66,517.826 1071.5,511.5C 1071.33,509.139 1070.99,506.806 1070.5,504.5C 1070.66,497.798 1070.33,491.131 1069.5,484.5C 1067.6,439.378 1055.77,397.044 1034,357.5C 1020.23,334.72 1005.23,312.72 989,291.5C 979.14,280.306 968.64,269.806 957.5,260C 950.007,254.668 942.673,249.168 935.5,243.5C 934.486,242.326 933.153,241.66 931.5,241.5C 930.375,239.871 929.041,238.371 927.5,237C 914.463,230.585 901.797,223.585 889.5,216C 875.179,209.341 860.512,203.507 845.5,198.5C 842.495,196.723 839.162,195.723 835.5,195.5C 829.095,194.419 822.762,193.086 816.5,191.5C 816.389,190.883 816.056,190.383 815.5,190C 810.062,189.329 804.728,188.496 799.5,187.5C 775.953,185.215 752.287,184.049 728.5,184C 722.948,180.056 716.948,176.89 710.5,174.5C 708.343,173.593 706.01,172.927 703.5,172.5C 694.669,167.998 685.335,164.998 675.5,163.5C 673.316,161.415 670.649,160.415 667.5,160.5C 664.833,160.5 662.167,160.5 659.5,160.5C 656.2,158.358 652.533,157.025 648.5,156.5C 636.792,155.369 625.126,154.036 613.5,152.5C 598.813,151.341 584.146,151.674 569.5,153.5C 564.848,153.998 560.181,154.331 555.5,154.5C 551.236,154.344 547.236,155.011 543.5,156.5C 534.465,157.839 525.465,159.506 516.5,161.5C 512.96,161.753 509.627,162.419 506.5,163.5C 502.02,165.273 497.354,166.606 492.5,167.5C 489.177,168.714 485.843,169.714 482.5,170.5C 469.832,174.336 457.499,179.003 445.5,184.5C 442.663,184.684 440.663,186.018 439.5,188.5C 433.947,188.777 429.28,190.943 425.5,195C 421.712,196.15 418.046,197.483 414.5,199C 411.778,201.358 408.778,203.191 405.5,204.5C 402.63,205.433 400.296,207.1 398.5,209.5C 390.911,212.097 384.244,216.264 378.5,222C 371.9,225.605 365.566,229.605 359.5,234C 339.373,249.465 320.539,266.298 303,284.5C 296.418,293.753 289.084,302.42 281,310.5C 274.637,319.521 268.304,328.521 262,337.5C 260.872,339.345 260.372,341.345 260.5,343.5C 258.537,344.96 256.704,346.627 255,348.5C 248.586,358.661 243.253,369.327 239,380.5C 236.957,382.208 235.29,384.208 234,386.5C 231.237,393.644 228.404,400.644 225.5,407.5C 224.897,409.626 224.897,411.959 225.5,414.5C 224.4,415.605 223.733,416.938 223.5,418.5C 222.852,420.498 222.019,422.498 221,424.5C 220.503,426.81 220.337,429.143 220.5,431.5C 219.609,433.609 218.442,435.609 217,437.5C 215.224,444.018 214.224,450.685 214,457.5C 213.333,458.833 212.667,460.167 212,461.5C 209.626,476.735 208.293,492.068 208,507.5C 206.812,508.563 206.312,509.897 206.5,511.5C 204.973,515.267 203.973,519.267 203.5,523.5C 201.405,527.532 200.072,531.866 199.5,536.5C 198.883,536.611 198.383,536.944 198,537.5C 195.374,548.385 193.541,559.385 192.5,570.5C 191.315,575.425 190.649,580.425 190.5,585.5C 189.532,587.607 189.198,589.941 189.5,592.5C 182.978,592.177 176.645,592.51 170.5,593.5C 165.312,594.07 160.312,595.237 155.5,597C 154.29,598.039 153.29,599.206 152.5,600.5C 143.822,604.346 137.655,610.679 134,619.5C 133.897,626.19 133.063,632.69 131.5,639C 131.581,640.924 131.914,642.757 132.5,644.5C 132.259,646.898 132.926,648.898 134.5,650.5C 140.168,665.309 148.501,678.476 159.5,690C 161.734,691.75 164.068,693.25 166.5,694.5C 166.45,698.795 168.45,701.128 172.5,701.5C 177.108,705.278 181.275,709.611 185,714.5C 189.793,724.047 193.293,734.047 195.5,744.5C 195.496,746.842 194.663,748.842 193,750.5C 192.501,754.486 192.334,758.486 192.5,762.5C 190.583,798.855 188.249,835.189 185.5,871.5C 186.449,878.499 186.282,885.499 185,892.5C 184.153,927.611 183.32,962.611 182.5,997.5C 182.333,1016.84 182.5,1036.17 183,1055.5C 183.177,1059.36 183.677,1063.02 184.5,1066.5C 185.765,1106.21 188.265,1145.88 192,1185.5C 194.948,1216.97 198.448,1248.3 202.5,1279.5C 134.833,1279.5 67.1667,1279.5 -0.5,1279.5C -0.5,852.833 -0.5,426.167 -0.5,-0.5 Z"/></g>
<g><path style="opacity:1" fill="#c2bfc0" d="M 613.5,152.5 C 598.863,152.443 584.197,152.777 569.5,153.5C 584.146,151.674 598.813,151.341 613.5,152.5 Z"/></g>
<g><path style="opacity:1" fill="#090101" d="M 613.5,152.5 C 625.126,154.036 636.792,155.369 648.5,156.5C 651.66,159 655.327,160.333 659.5,160.5C 662.167,160.5 664.833,160.5 667.5,160.5C 669.684,162.585 672.351,163.585 675.5,163.5C 685.335,164.998 694.669,167.998 703.5,172.5C 703.611,173.117 703.944,173.617 704.5,174C 706.473,174.495 708.473,174.662 710.5,174.5C 716.948,176.89 722.948,180.056 728.5,184C 752.287,184.049 775.953,185.215 799.5,187.5C 801.148,188.927 803.148,189.76 805.5,190C 809.17,190.548 812.837,191.048 816.5,191.5C 822.762,193.086 829.095,194.419 835.5,195.5C 838.505,197.277 841.838,198.277 845.5,198.5C 860.512,203.507 875.179,209.341 889.5,216C 901.797,223.585 914.463,230.585 927.5,237C 929.041,238.371 930.375,239.871 931.5,241.5C 932.287,243.104 933.62,243.771 935.5,243.5C 942.673,249.168 950.007,254.668 957.5,260C 968.64,269.806 979.14,280.306 989,291.5C 1005.23,312.72 1020.23,334.72 1034,357.5C 1055.77,397.044 1067.6,439.378 1069.5,484.5C 1069.25,490.966 1069.25,497.632 1069.5,504.5C 1069.41,507.152 1070.08,509.485 1071.5,511.5C 1073.66,517.826 1075.83,524.16 1078,530.5C 1084.18,555.857 1088.34,581.524 1090.5,607.5C 1090.73,616.017 1091.4,624.35 1092.5,632.5C 1092.28,644.109 1091.94,655.776 1091.5,667.5C 1090.7,675.346 1090.04,683.346 1089.5,691.5C 1089.16,697.208 1088.49,702.875 1087.5,708.5C 1085.75,712.183 1085.08,716.183 1085.5,720.5C 1083.01,732.751 1080.51,745.084 1078,757.5C 1077.04,760.377 1075.71,763.044 1074,765.5C 1073.05,774.971 1070.38,783.971 1066,792.5C 1065.01,795.424 1064.35,798.424 1064,801.5C 1023.93,900.746 954.759,972.079 856.5,1015.5C 858.824,1016.66 861.158,1017.83 863.5,1019C 869.527,1023.92 875.527,1028.76 881.5,1033.5C 882.911,1035.91 884.911,1037.58 887.5,1038.5C 893.465,1043.96 899.298,1049.63 905,1055.5C 905.833,1057.17 906.667,1058.83 907.5,1060.5C 912.148,1063.44 915.648,1067.44 918,1072.5C 929.912,1086 940.078,1100.67 948.5,1116.5C 948.896,1119.72 950.229,1122.39 952.5,1124.5C 955.123,1127.04 957.289,1130.04 959,1133.5C 970.124,1155.94 980.291,1178.77 989.5,1202C 988.541,1204.12 988.374,1206.29 989,1208.5C 993.782,1217.83 997.616,1227.66 1000.5,1238C 998.959,1245.3 995.126,1250.8 989,1254.5C 988.561,1263.04 989.395,1271.38 991.5,1279.5C 979.167,1279.5 966.833,1279.5 954.5,1279.5C 954.5,1277.5 954.5,1275.5 954.5,1273.5C 953.209,1273.26 952.209,1273.6 951.5,1274.5C 948.235,1276.72 944.568,1277.89 940.5,1278C 939.944,1278.38 939.611,1278.88 939.5,1279.5C 921.5,1279.5 903.5,1279.5 885.5,1279.5C 885,1228.14 884,1176.81 882.5,1125.5C 882.667,1113.16 882.5,1100.83 882,1088.5C 881.292,1087.62 880.458,1086.95 879.5,1086.5C 876.185,1082.57 872.852,1078.57 869.5,1074.5C 861.316,1069.14 854.316,1062.64 848.5,1055C 844.02,1053.93 840.353,1051.59 837.5,1048C 830.462,1044.31 823.129,1041.48 815.5,1039.5C 815.174,1042.31 814.341,1044.98 813,1047.5C 809.054,1053.78 804.721,1059.78 800,1065.5C 791.477,1073.02 783.31,1080.86 775.5,1089C 759.925,1100.29 743.592,1110.29 726.5,1119C 718.472,1121.79 710.472,1124.79 702.5,1128C 689.935,1131.1 677.268,1133.77 664.5,1136C 650.86,1137.42 637.193,1137.75 623.5,1137C 612.854,1135.17 602.187,1133.5 591.5,1132C 542.015,1119.83 501.515,1093.67 470,1053.5C 464.906,1043.64 459.573,1033.97 454,1024.5C 450.512,1023.09 447.178,1021.42 444,1019.5C 441.816,1016.13 440.483,1012.47 440,1008.5C 438.045,1007.55 436.378,1006.21 435,1004.5C 433.173,1000.72 432.173,996.719 432,992.5C 430.601,989.371 428.935,986.371 427,983.5C 422.865,972.906 419.032,962.239 415.5,951.5C 416.424,947.116 415.091,943.782 411.5,941.5C 409.446,935.163 407.112,928.996 404.5,923C 403.667,922.833 402.833,922.667 402,922.5C 383.442,927.201 364.942,932.035 346.5,937C 344.19,937.497 341.857,937.663 339.5,937.5C 335.916,937.975 332.583,938.975 329.5,940.5C 322.395,942.941 315.061,944.441 307.5,945C 301.237,948.232 294.57,949.899 287.5,950C 281.248,953.054 274.582,954.72 267.5,955C 257.937,959.266 247.937,961.766 237.5,962.5C 234.99,962.054 232.99,962.72 231.5,964.5C 228.56,965.202 225.727,966.202 223,967.5C 222.014,1015.19 222.681,1062.86 225,1110.5C 228.043,1138.34 230.543,1166.34 232.5,1194.5C 232.596,1200.37 233.263,1206.04 234.5,1211.5C 235.563,1227.62 237.229,1243.62 239.5,1259.5C 239.5,1266.17 239.5,1272.83 239.5,1279.5C 227.167,1279.5 214.833,1279.5 202.5,1279.5C 198.448,1248.3 194.948,1216.97 192,1185.5C 188.265,1145.88 185.765,1106.21 184.5,1066.5C 184.017,1043.34 183.35,1020.34 182.5,997.5C 183.32,962.611 184.153,927.611 185,892.5C 186.282,885.499 186.449,878.499 185.5,871.5C 188.249,835.189 190.583,798.855 192.5,762.5C 193.026,758.395 194.192,754.395 196,750.5C 196.789,748.288 196.622,746.288 195.5,744.5C 193.293,734.047 189.793,724.047 185,714.5C 181.275,709.611 177.108,705.278 172.5,701.5C 170.727,698.94 168.727,696.607 166.5,694.5C 164.068,693.25 161.734,691.75 159.5,690C 148.501,678.476 140.168,665.309 134.5,650.5C 134.741,648.102 134.074,646.102 132.5,644.5C 131.914,642.757 131.581,640.924 131.5,639C 133.063,632.69 133.897,626.19 134,619.5C 137.655,610.679 143.822,604.346 152.5,600.5C 153.496,600.586 154.329,600.252 155,599.5C 154.737,600.951 154.904,602.284 155.5,603.5C 157.472,602.695 158.972,601.361 160,599.5C 160.333,599.833 160.667,600.167 161,600.5C 163.406,598.844 165.906,598.344 168.5,599C 167.429,597.175 168.096,596.008 170.5,595.5C 171.696,595.846 171.696,596.346 170.5,597C 173.832,597.249 176.999,598.082 180,599.5C 182.905,599.022 185.905,599.022 189,599.5C 189.925,598.953 190.758,598.287 191.5,597.5C 191.08,595.674 191.08,593.674 191.5,591.5C 192.833,591.5 194.167,591.5 195.5,591.5C 195.009,587.311 195.175,582.978 196,578.5C 197.167,579.667 198.333,580.833 199.5,582C 198.833,582.333 198.167,582.667 197.5,583C 199.321,585.456 199.988,588.289 199.5,591.5C 200.833,591.5 202.167,591.5 203.5,591.5C 203.248,588.756 203.915,586.256 205.5,584C 204.87,581.227 205.203,578.394 206.5,575.5C 207.167,567.5 207.833,559.5 208.5,551.5C 209.354,550.478 210.354,549.645 211.5,549C 208.833,548.333 208.833,547.667 211.5,547C 210.833,546.667 210.167,546.333 209.5,546C 210.833,543.667 212.167,541.333 213.5,539C 212.833,538.667 212.167,538.333 211.5,538C 212.646,537.355 213.646,536.522 214.5,535.5C 215.047,532.298 216.047,529.298 217.5,526.5C 216.332,525.094 216.665,523.928 218.5,523C 217.978,522.439 217.645,521.772 217.5,521C 218.581,519.629 219.415,518.129 220,516.5C 221.049,517.517 222.216,517.684 223.5,517C 222.833,516.667 222.167,516.333 221.5,516C 223.121,508.748 224.121,501.248 224.5,493.5C 228.592,495.512 232.925,496.012 237.5,495C 236.935,493.326 236.768,491.493 237,489.5C 236.086,490.654 235.253,490.487 234.5,489C 234.833,488.667 235.167,488.333 235.5,488C 231.644,486.815 228.644,484.482 226.5,481C 226.833,480.667 227.167,480.333 227.5,480C 226.207,479.51 224.873,479.343 223.5,479.5C 223.5,468.833 223.5,458.167 223.5,447.5C 226.525,447.769 229.192,446.936 231.5,445C 228.833,444.333 228.833,443.667 231.5,443C 230.833,442.667 230.167,442.333 229.5,442C 233.107,440.863 236.44,439.196 239.5,437C 236.833,436.333 236.833,435.667 239.5,435C 238.833,434.667 238.167,434.333 237.5,434C 238.516,433.481 239.182,432.647 239.5,431.5C 238.832,425.501 238.832,419.167 239.5,412.5C 239.446,409.061 238.78,405.894 237.5,403C 238.973,402.29 239.64,401.124 239.5,399.5C 242.525,399.769 245.192,398.936 247.5,397C 245.122,396.026 245.456,395.359 248.5,395C 247.5,394.667 246.5,394.333 245.5,394C 249.107,392.863 252.44,391.196 255.5,389C 252.833,388.333 252.833,387.667 255.5,387C 254.833,386.667 254.167,386.333 253.5,386C 254.789,382.598 255.456,378.931 255.5,375C 255.333,371.5 255.167,368 255,364.5C 254.552,362.776 253.718,362.109 252.5,362.5C 253.035,360.729 253.869,360.396 255,361.5C 255.333,358.167 255.667,354.833 256,351.5C 257.487,350.747 257.654,349.914 256.5,349C 258.452,347.588 259.785,345.755 260.5,343.5C 260.372,341.345 260.872,339.345 262,337.5C 268.304,328.521 274.637,319.521 281,310.5C 289.084,302.42 296.418,293.753 303,284.5C 320.539,266.298 339.373,249.465 359.5,234C 365.566,229.605 371.9,225.605 378.5,222C 384.244,216.264 390.911,212.097 398.5,209.5C 401.37,208.567 403.704,206.9 405.5,204.5C 408.778,203.191 411.778,201.358 414.5,199C 418.046,197.483 421.712,196.15 425.5,195C 429.28,190.943 433.947,188.777 439.5,188.5C 441.882,187.649 443.882,186.316 445.5,184.5C 457.499,179.003 469.832,174.336 482.5,170.5C 486.475,171.142 489.808,170.142 492.5,167.5C 497.354,166.606 502.02,165.273 506.5,163.5C 509.518,163.665 512.518,163.498 515.5,163C 516.056,162.617 516.389,162.117 516.5,161.5C 525.465,159.506 534.465,157.839 543.5,156.5C 547.79,156.802 551.79,156.136 555.5,154.5C 560.181,154.331 564.848,153.998 569.5,153.5C 584.197,152.777 598.863,152.443 613.5,152.5 Z"/></g>
<g><path style="opacity:1" fill="#a5a3a3" d="M 555.5,154.5 C 551.79,156.136 547.79,156.802 543.5,156.5C 547.236,155.011 551.236,154.344 555.5,154.5 Z"/></g>
<g><path style="opacity:1" fill="#777475" d="M 648.5,156.5 C 652.533,157.025 656.2,158.358 659.5,160.5C 655.327,160.333 651.66,159 648.5,156.5 Z"/></g>
<g><path style="opacity:1" fill="#959293" d="M 667.5,160.5 C 670.649,160.415 673.316,161.415 675.5,163.5C 672.351,163.585 669.684,162.585 667.5,160.5 Z"/></g>
<g><path style="opacity:1" fill="#797778" d="M 516.5,161.5 C 516.389,162.117 516.056,162.617 515.5,163C 512.518,163.498 509.518,163.665 506.5,163.5C 509.627,162.419 512.96,161.753 516.5,161.5 Z"/></g>
<g><path style="opacity:1" fill="#8a8888" d="M 492.5,167.5 C 489.808,170.142 486.475,171.142 482.5,170.5C 485.843,169.714 489.177,168.714 492.5,167.5 Z"/></g>
<g><path style="opacity:1" fill="#a6a4a5" d="M 703.5,172.5 C 706.01,172.927 708.343,173.593 710.5,174.5C 708.473,174.662 706.473,174.495 704.5,174C 703.944,173.617 703.611,173.117 703.5,172.5 Z"/></g>
<g><path style="opacity:1" fill="#afaaab" d="M 445.5,184.5 C 443.882,186.316 441.882,187.649 439.5,188.5C 440.663,186.018 442.663,184.684 445.5,184.5 Z"/></g>
<g><path style="opacity:1" fill="#c3c3c3" d="M 799.5,187.5 C 804.728,188.496 810.062,189.329 815.5,190C 816.056,190.383 816.389,190.883 816.5,191.5C 812.837,191.048 809.17,190.548 805.5,190C 803.148,189.76 801.148,188.927 799.5,187.5 Z"/></g>
<g><path style="opacity:1" fill="#aaa7a8" d="M 835.5,195.5 C 839.162,195.723 842.495,196.723 845.5,198.5C 841.838,198.277 838.505,197.277 835.5,195.5 Z"/></g>
<g><path style="opacity:1" fill="#696a69" d="M 405.5,204.5 C 403.704,206.9 401.37,208.567 398.5,209.5C 400.296,207.1 402.63,205.433 405.5,204.5 Z"/></g>
<g><path style="opacity:1" fill="#767071" d="M 931.5,241.5 C 933.153,241.66 934.486,242.326 935.5,243.5C 933.62,243.771 932.287,243.104 931.5,241.5 Z"/></g>
<g><path style="opacity:1" fill="#fdd8bb" d="M 907.5,399.5 C 908.08,401.749 909.413,403.415 911.5,404.5C 912.207,407.643 913.373,410.643 915,413.5C 919.075,419.973 923.408,426.306 928,432.5C 928.662,434.813 929.162,437.146 929.5,439.5C 929.325,443.967 930.325,448.133 932.5,452C 932.043,452.414 931.709,452.914 931.5,453.5C 932.628,454.262 933.795,454.929 935,455.5C 935.47,457.774 936.47,459.774 938,461.5C 938.333,461.167 938.667,460.833 939,460.5C 941.305,466.394 942.972,472.394 944,478.5C 944.333,478.167 944.667,477.833 945,477.5C 945.597,480.958 946.597,484.291 948,487.5C 948.671,488.252 949.504,488.586 950.5,488.5C 952.025,493.869 954.858,498.536 959,502.5C 960.667,505.5 962.333,508.5 964,511.5C 974.422,522.465 985.588,532.632 997.5,542C 999.795,545.297 1002.46,548.297 1005.5,551C 1010.02,555.022 1014.69,558.856 1019.5,562.5C 1020.47,564.63 1021.63,566.63 1023,568.5C 1030.31,575.205 1036.64,582.538 1042,590.5C 1045.04,593.203 1047.7,596.203 1050,599.5C 1061.29,706.079 1034.29,801.079 969,884.5C 931.636,927.42 886.803,959.92 834.5,982C 831.764,984.6 828.431,985.933 824.5,986C 819.85,989.001 814.85,990.834 809.5,991.5C 807.143,991.337 804.81,991.503 802.5,992C 799.126,994.125 795.46,995.458 791.5,996C 789.569,996.902 787.903,998.069 786.5,999.5C 754.243,1009.33 721.243,1015.33 687.5,1017.5C 666.336,1017.99 645.336,1018.66 624.5,1019.5C 608.21,1017.9 591.877,1016.74 575.5,1016C 559.578,1012.54 543.578,1009.38 527.5,1006.5C 524.727,1005.34 521.727,1004.68 518.5,1004.5C 505.727,1001.52 493.061,998.022 480.5,994C 477.095,992.531 473.928,990.697 471,988.5C 467.154,979.802 464.154,970.802 462,961.5C 459.228,953.953 455.895,946.62 452,939.5C 451.505,937.527 451.338,935.527 451.5,933.5C 451.402,928.734 450.736,924.067 449.5,919.5C 448.325,919.719 447.325,919.386 446.5,918.5C 445.392,915.941 444.059,913.608 442.5,911.5C 438.435,900.971 434.768,890.304 431.5,879.5C 431.084,876.594 430.418,873.761 429.5,871C 430.336,868.51 431.002,866.01 431.5,863.5C 430.167,863.5 428.833,863.5 427.5,863.5C 427.662,861.473 427.495,859.473 427,857.5C 426.395,859.481 425.395,859.815 424,858.5C 423.971,855.633 423.138,853.133 421.5,851C 422.167,850.667 422.833,850.333 423.5,850C 422.354,849.355 421.354,848.522 420.5,847.5C 419.833,844.167 419.167,840.833 418.5,837.5C 415.725,834.286 413.725,830.619 412.5,826.5C 411.817,826.137 411.15,825.804 410.5,825.5C 401.682,801.226 392.349,777.059 382.5,753C 384.032,746.437 386.532,740.271 390,734.5C 393.343,721.813 398.343,709.813 405,698.5C 406.517,696.76 408.017,695.094 409.5,693.5C 412.95,691.937 414.95,689.27 415.5,685.5C 416.833,685.5 418.167,685.5 419.5,685.5C 419.281,684.325 419.614,683.325 420.5,682.5C 423.851,680.306 426.517,677.473 428.5,674C 436.273,672.28 442.607,668.28 447.5,662C 448.784,661.316 449.951,661.483 451,662.5C 451.833,661 453,659.833 454.5,659C 453.411,656.737 454.078,654.904 456.5,653.5C 457.842,655.005 459.508,655.672 461.5,655.5C 462.401,646.669 463.734,637.669 465.5,628.5C 465.87,622.075 465.37,615.742 464,609.5C 461.333,604.167 458.667,598.833 456,593.5C 451.97,590.962 448.47,587.795 445.5,584C 430.254,576.021 414.421,574.521 398,579.5C 396.208,578.963 394.375,578.63 392.5,578.5C 387.092,579.419 381.759,580.252 376.5,581C 367.512,571.676 356.846,565.176 344.5,561.5C 337.011,560.344 329.345,560.178 321.5,561C 318.478,561.098 315.811,561.932 313.5,563.5C 311.143,563.337 308.81,563.503 306.5,564C 304.416,565.771 302.082,567.104 299.5,568C 295.541,568.279 291.708,569.113 288,570.5C 282.713,568.237 277.213,566.903 271.5,566.5C 267.688,565.676 263.688,565.176 259.5,565C 261.041,563.629 262.375,562.129 263.5,560.5C 270.146,554.468 276.48,547.968 282.5,541C 289.457,536.701 295.79,531.701 301.5,526C 305.941,520.556 310.774,515.389 316,510.5C 317.368,507.814 318.701,505.147 320,502.5C 322.374,500.461 324.374,498.128 326,495.5C 330.415,485.416 334.081,475.082 337,464.5C 340.329,455.633 344.496,447.3 349.5,439.5C 351.163,437.562 351.829,435.228 351.5,432.5C 353.482,429.19 355.815,426.19 358.5,423.5C 359.391,422.739 360.058,421.739 360.5,420.5C 361.325,419.614 362.325,419.281 363.5,419.5C 364.032,414.203 364.866,414.203 366,419.5C 367.617,418.464 367.784,417.297 366.5,416C 370.717,412.131 372.384,407.298 371.5,401.5C 372.552,401.649 373.552,401.483 374.5,401C 377.315,394.647 382.315,391.314 389.5,391C 390.056,390.617 390.389,390.117 390.5,389.5C 394.189,388.223 397.856,387.223 401.5,386.5C 410.204,385.685 418.871,384.685 427.5,383.5C 437.475,382.622 447.475,381.955 457.5,381.5C 459.5,381.5 461.5,381.5 463.5,381.5C 486.502,381.333 509.502,381.5 532.5,382C 533.263,382.944 534.263,383.444 535.5,383.5C 537.837,381.475 540.503,380.141 543.5,379.5C 543.5,378.167 543.5,376.833 543.5,375.5C 550.175,375.334 556.842,375.5 563.5,376C 565.32,376.979 566.487,378.479 567,380.5C 567.333,380.167 567.667,379.833 568,379.5C 569.707,380.459 571.541,381.125 573.5,381.5C 580.014,380.348 586.014,378.348 591.5,375.5C 595.395,372.963 599.728,371.963 604.5,372.5C 608.897,372.431 612.897,373.598 616.5,376C 621.833,376.667 627.167,376.667 632.5,376C 634.624,374.878 636.457,373.378 638,371.5C 641.545,348.52 649.212,327.187 661,307.5C 666.857,300.645 673.024,294.145 679.5,288C 694.26,278.032 710.593,274.365 728.5,277C 733.471,277.312 738.137,278.645 742.5,281C 776.972,277.338 801.138,291.171 815,322.5C 820.788,337.215 823.788,352.549 824,368.5C 828.049,375.895 834.216,380.062 842.5,381C 849.824,382.029 856.991,381.529 864,379.5C 868.398,380.862 872.898,381.696 877.5,382C 881.941,385.258 886.941,386.925 892.5,387C 895.382,388.52 898.382,389.853 901.5,391C 904.318,393.364 906.318,396.197 907.5,399.5 Z"/></g>
<g><path style="opacity:1" fill="#0b0608" d="M 260.5,343.5 C 259.785,345.755 258.452,347.588 256.5,349C 257.654,349.914 257.487,350.747 256,351.5C 255.667,354.833 255.333,358.167 255,361.5C 253.869,360.396 253.035,360.729 252.5,362.5C 253.718,362.109 254.552,362.776 255,364.5C 255.167,368 255.333,371.5 255.5,375C 255.456,378.931 254.789,382.598 253.5,386C 254.167,386.333 254.833,386.667 255.5,387C 252.833,387.667 252.833,388.333 255.5,389C 252.44,391.196 249.107,392.863 245.5,394C 246.5,394.333 247.5,394.667 248.5,395C 245.456,395.359 245.122,396.026 247.5,397C 245.192,398.936 242.525,399.769 239.5,399.5C 239.64,401.124 238.973,402.29 237.5,403C 238.78,405.894 239.446,409.061 239.5,412.5C 238.832,419.167 238.832,425.501 239.5,431.5C 239.182,432.647 238.516,433.481 237.5,434C 238.167,434.333 238.833,434.667 239.5,435C 236.833,435.667 236.833,436.333 239.5,437C 236.44,439.196 233.107,440.863 229.5,442C 230.167,442.333 230.833,442.667 231.5,443C 228.833,443.667 228.833,444.333 231.5,445C 229.192,446.936 226.525,447.769 223.5,447.5C 223.5,458.167 223.5,468.833 223.5,479.5C 224.873,479.343 226.207,479.51 227.5,480C 227.167,480.333 226.833,480.667 226.5,481C 228.644,484.482 231.644,486.815 235.5,488C 235.167,488.333 234.833,488.667 234.5,489C 235.253,490.487 236.086,490.654 237,489.5C 236.768,491.493 236.935,493.326 237.5,495C 232.925,496.012 228.592,495.512 224.5,493.5C 224.121,501.248 223.121,508.748 221.5,516C 222.167,516.333 222.833,516.667 223.5,517C 222.216,517.684 221.049,517.517 220,516.5C 219.415,518.129 218.581,519.629 217.5,521C 217.645,521.772 217.978,522.439 218.5,523C 216.665,523.928 216.332,525.094 217.5,526.5C 216.047,529.298 215.047,532.298 214.5,535.5C 213.646,536.522 212.646,537.355 211.5,538C 212.167,538.333 212.833,538.667 213.5,539C 212.167,541.333 210.833,543.667 209.5,546C 210.167,546.333 210.833,546.667 211.5,547C 208.833,547.667 208.833,548.333 211.5,549C 210.354,549.645 209.354,550.478 208.5,551.5C 207.833,559.5 207.167,567.5 206.5,575.5C 205.203,578.394 204.87,581.227 205.5,584C 203.915,586.256 203.248,588.756 203.5,591.5C 202.167,591.5 200.833,591.5 199.5,591.5C 199.988,588.289 199.321,585.456 197.5,583C 198.167,582.667 198.833,582.333 199.5,582C 198.333,580.833 197.167,579.667 196,578.5C 195.175,582.978 195.009,587.311 195.5,591.5C 194.167,591.5 192.833,591.5 191.5,591.5C 191.08,593.674 191.08,595.674 191.5,597.5C 190.758,598.287 189.925,598.953 189,599.5C 185.905,599.022 182.905,599.022 180,599.5C 176.999,598.082 173.832,597.249 170.5,597C 171.696,596.346 171.696,595.846 170.5,595.5C 168.096,596.008 167.429,597.175 168.5,599C 165.906,598.344 163.406,598.844 161,600.5C 160.667,600.167 160.333,599.833 160,599.5C 158.972,601.361 157.472,602.695 155.5,603.5C 154.904,602.284 154.737,600.951 155,599.5C 154.329,600.252 153.496,600.586 152.5,600.5C 153.29,599.206 154.29,598.039 155.5,597C 160.312,595.237 165.312,594.07 170.5,593.5C 177.167,593.5 183.833,593.5 190.5,593.5C 190.5,590.833 190.5,588.167 190.5,585.5C 190.649,580.425 191.315,575.425 192.5,570.5C 194.685,559.336 197.018,548.003 199.5,536.5C 200.072,531.866 201.405,527.532 203.5,523.5C 206.114,520.032 207.114,516.032 206.5,511.5C 206.312,509.897 206.812,508.563 208,507.5C 208.293,492.068 209.626,476.735 212,461.5C 212.667,460.167 213.333,458.833 214,457.5C 214.224,450.685 215.224,444.018 217,437.5C 218.442,435.609 219.609,433.609 220.5,431.5C 221.929,427.346 222.929,423.013 223.5,418.5C 223.733,416.938 224.4,415.605 225.5,414.5C 226.756,412.274 226.756,409.941 225.5,407.5C 228.404,400.644 231.237,393.644 234,386.5C 235.29,384.208 236.957,382.208 239,380.5C 243.253,369.327 248.586,358.661 255,348.5C 256.704,346.627 258.537,344.96 260.5,343.5 Z"/></g>
<g><path style="opacity:1" fill="#8e7c76" d="M 604.5,372.5 C 599.728,371.963 595.395,372.963 591.5,375.5C 590.5,375.5 589.5,375.5 588.5,375.5C 593.305,371.62 598.638,370.62 604.5,372.5 Z"/></g>
<g><path style="opacity:1" fill="#b1a098" d="M 554.5,373.5 C 550.818,373.335 547.152,373.501 543.5,374C 542.529,375.481 541.196,376.315 539.5,376.5C 540.29,375.206 541.29,374.039 542.5,373C 546.689,372.188 550.689,372.355 554.5,373.5 Z"/></g>
<g><path style="opacity:1" fill="#e3c5b0" d="M 554.5,373.5 C 565.684,376.44 577.018,377.106 588.5,375.5C 589.5,375.5 590.5,375.5 591.5,375.5C 586.014,378.348 580.014,380.348 573.5,381.5C 571.541,381.125 569.707,380.459 568,379.5C 567.667,379.833 567.333,380.167 567,380.5C 566.487,378.479 565.32,376.979 563.5,376C 556.842,375.5 550.175,375.334 543.5,375.5C 543.5,376.833 543.5,378.167 543.5,379.5C 540.503,380.141 537.837,381.475 535.5,383.5C 534.263,383.444 533.263,382.944 532.5,382C 509.502,381.5 486.502,381.333 463.5,381.5C 481.648,379.39 499.981,379.056 518.5,380.5C 525.712,380.191 532.712,378.858 539.5,376.5C 541.196,376.315 542.529,375.481 543.5,374C 547.152,373.501 550.818,373.335 554.5,373.5 Z"/></g>
<g><path style="opacity:1" fill="#524541" d="M 457.5,381.5 C 447.475,381.955 437.475,382.622 427.5,383.5C 432.094,382.885 436.761,382.051 441.5,381C 447.016,380.183 452.35,380.349 457.5,381.5 Z"/></g>
<g><path style="opacity:1" fill="#95847d" d="M 401.5,386.5 C 397.856,387.223 394.189,388.223 390.5,389.5C 389.5,389.5 388.5,389.5 387.5,389.5C 388.6,388.442 389.934,387.608 391.5,387C 394.817,386.502 398.15,386.335 401.5,386.5 Z"/></g>
<g><path style="opacity:1" fill="#e9cab7" d="M 387.5,389.5 C 388.5,389.5 389.5,389.5 390.5,389.5C 390.389,390.117 390.056,390.617 389.5,391C 382.315,391.314 377.315,394.647 374.5,401C 373.552,401.483 372.552,401.649 371.5,401.5C 372.384,407.298 370.717,412.131 366.5,416C 367.784,417.297 367.617,418.464 366,419.5C 364.866,414.203 364.032,414.203 363.5,419.5C 362.325,419.281 361.325,419.614 360.5,420.5C 360.058,421.739 359.391,422.739 358.5,423.5C 359.177,419.625 361.01,416.292 364,413.5C 365.696,407.648 368.696,402.648 373,398.5C 373.438,394.433 375.605,391.933 379.5,391C 382.117,390.178 384.784,389.678 387.5,389.5 Z"/></g>
<g><path style="opacity:1" fill="#907362" d="M 907.5,399.5 C 909.587,400.585 910.92,402.251 911.5,404.5C 909.413,403.415 908.08,401.749 907.5,399.5 Z"/></g>
<g><path style="opacity:1" fill="#767475" d="M 225.5,407.5 C 226.756,409.941 226.756,412.274 225.5,414.5C 224.897,411.959 224.897,409.626 225.5,407.5 Z"/></g>
<g><path style="opacity:1" fill="#9d9b9c" d="M 223.5,418.5 C 222.929,423.013 221.929,427.346 220.5,431.5C 220.337,429.143 220.503,426.81 221,424.5C 222.019,422.498 222.852,420.498 223.5,418.5 Z"/></g>
<g><path style="opacity:1" fill="#3d3c3b" d="M 317.5,402.5 C 319.604,402.201 321.604,402.534 323.5,403.5C 315.957,415.305 309.457,427.639 304,440.5C 299.879,455.948 293.879,470.614 286,484.5C 277.667,492.833 269.333,501.167 261,509.5C 260.517,510.448 260.351,511.448 260.5,512.5C 254.834,513.969 250,516.969 246,521.5C 246.009,517.446 246.676,513.446 248,509.5C 253.102,497.842 258.102,486.176 263,474.5C 263.154,468.917 265.321,464.417 269.5,461C 278.097,444.306 287.597,428.139 298,412.5C 300.167,410.333 302.333,408.167 304.5,406C 309.077,405.275 313.41,404.108 317.5,402.5 Z"/></g>
<g><path style="opacity:1" fill="#918174" d="M 351.5,432.5 C 351.829,435.228 351.163,437.562 349.5,439.5C 349.41,436.848 350.076,434.515 351.5,432.5 Z"/></g>
<g><path style="opacity:1" fill="#3d3c3b" d="M 953.5,399.5 C 957.911,401.579 962.577,402.746 967.5,403C 969.156,404.829 971.156,406.163 973.5,407C 997.47,438.312 1016.3,472.478 1030,509.5C 1031.32,513.108 1031.99,516.775 1032,520.5C 1028.42,516.957 1024.25,514.29 1019.5,512.5C 1016.07,506.937 1011.73,502.27 1006.5,498.5C 1000.47,492.635 994.969,486.302 990,479.5C 982.819,463.124 976.152,446.457 970,429.5C 964.202,419.564 958.702,409.564 953.5,399.5 Z"/></g>
<g><path style="opacity:1" fill="#a48e7f" d="M 785.5,447.5 C 787.167,447.5 788.833,447.5 790.5,447.5C 792.79,448.49 794.456,450.157 795.5,452.5C 792.128,450.814 788.795,449.147 785.5,447.5 Z"/></g>
<g><path style="opacity:1" fill="#0c0303" d="M 785.5,447.5 C 788.795,449.147 792.128,450.814 795.5,452.5C 799.214,456.05 802.381,460.05 805,464.5C 808.381,474.794 806.548,483.961 799.5,492C 795.867,494.65 791.867,496.483 787.5,497.5C 781.87,498.292 776.203,498.625 770.5,498.5C 768.037,498.219 765.87,497.219 764,495.5C 761.333,491.5 758.667,487.5 756,483.5C 750.868,467.256 756.035,455.423 771.5,448C 776.155,447.501 780.821,447.334 785.5,447.5 Z"/></g>
<g><path style="opacity:1" fill="#e7c8b4" d="M 929.5,439.5 C 934.089,446.341 937.922,453.674 941,461.5C 943.929,470.591 947.096,479.591 950.5,488.5C 949.504,488.586 948.671,488.252 948,487.5C 946.597,484.291 945.597,480.958 945,477.5C 944.667,477.833 944.333,478.167 944,478.5C 942.972,472.394 941.305,466.394 939,460.5C 938.667,460.833 938.333,461.167 938,461.5C 936.47,459.774 935.47,457.774 935,455.5C 933.795,454.929 932.628,454.262 931.5,453.5C 931.709,452.914 932.043,452.414 932.5,452C 930.325,448.133 929.325,443.967 929.5,439.5 Z"/></g>
<g><path style="opacity:1" fill="#0b0202" d="M 524.5,467.5 C 523.628,470.579 523.628,473.579 524.5,476.5C 523.624,484.223 520.29,490.723 514.5,496C 501.004,502.124 488.837,500.29 478,490.5C 467.751,471.033 472.584,456.867 492.5,448C 506.601,445.8 517.101,450.967 524,463.5C 524.49,464.793 524.657,466.127 524.5,467.5 Z"/></g>
<g><path style="opacity:1" fill="#eed0b9" d="M 790.5,447.5 C 793.632,447.784 796.632,448.617 799.5,450C 801.281,453.884 803.615,457.384 806.5,460.5C 807.167,470.167 807.833,479.833 808.5,489.5C 809.23,490.934 810.23,492.1 811.5,493C 811.034,494.299 811.034,495.799 811.5,497.5C 810.448,497.649 809.448,497.483 808.5,497C 808.833,496.667 809.167,496.333 809.5,496C 807.658,492.983 804.991,491.483 801.5,491.5C 801.5,492.833 801.5,494.167 801.5,495.5C 796.094,496.202 791.094,498.035 786.5,501C 782.833,501.667 779.167,501.667 775.5,501C 774.263,500.768 773.263,500.268 772.5,499.5C 776.846,499.666 781.179,499.499 785.5,499C 786.416,498.722 787.082,498.222 787.5,497.5C 791.867,496.483 795.867,494.65 799.5,492C 806.548,483.961 808.381,474.794 805,464.5C 802.381,460.05 799.214,456.05 795.5,452.5C 794.456,450.157 792.79,448.49 790.5,447.5 Z"/></g>
<g><path style="opacity:1" fill="#443129" d="M 524.5,467.5 C 527.167,470.5 527.167,473.5 524.5,476.5C 523.628,473.579 523.628,470.579 524.5,467.5 Z"/></g>
<g><path style="opacity:1" fill="#bfb8b8" d="M 1069.5,484.5 C 1070.33,491.131 1070.66,497.798 1070.5,504.5C 1070.17,504.5 1069.83,504.5 1069.5,504.5C 1069.25,497.632 1069.25,490.966 1069.5,484.5 Z"/></g>
<g><path style="opacity:1" fill="#f1b09d" d="M 863.5,495.5 C 856.167,495.5 848.833,495.5 841.5,495.5C 841.918,494.778 842.584,494.278 843.5,494C 846.833,493.833 850.167,493.667 853.5,493.5C 857.239,493.514 860.572,494.18 863.5,495.5 Z"/></g>
<g><path style="opacity:1" fill="#fd8361" d="M 475.5,521.5 C 476.937,526.028 477.604,530.694 477.5,535.5C 477.308,538.601 476.642,541.601 475.5,544.5C 470.751,548.578 466.751,553.245 463.5,558.5C 455.786,562.068 447.786,564.901 439.5,567C 428.833,567.667 418.167,567.667 407.5,567C 399.863,563.851 392.197,560.685 384.5,557.5C 382.218,553.282 379.218,549.616 375.5,546.5C 371.965,539.228 370.798,531.561 372,523.5C 374.662,519.845 376.495,515.845 377.5,511.5C 381.265,511.324 383.265,509.324 383.5,505.5C 389.182,503.827 394.515,501.327 399.5,498C 418.337,494.172 437.004,494.839 455.5,500C 461.134,502.16 466.134,505.326 470.5,509.5C 471.748,513.723 473.414,517.723 475.5,521.5 Z"/></g>
<g><path style="opacity:1" fill="#4a362b" d="M 787.5,497.5 C 787.082,498.222 786.416,498.722 785.5,499C 781.179,499.499 776.846,499.666 772.5,499.5C 771.508,499.672 770.842,499.338 770.5,498.5C 776.203,498.625 781.87,498.292 787.5,497.5 Z"/></g>
<g><path style="opacity:1" fill="#fd8361" d="M 841.5,495.5 C 848.833,495.5 856.167,495.5 863.5,495.5C 878.911,496.374 891.911,502.374 902.5,513.5C 903.442,516.993 904.775,520.326 906.5,523.5C 906.833,526.167 907.167,528.833 907.5,531.5C 906.75,537.654 905.417,543.654 903.5,549.5C 902.167,549.5 900.833,549.5 899.5,549.5C 897.964,555.623 893.964,558.957 887.5,559.5C 880.726,560.731 874.059,562.231 867.5,564C 868.833,564.333 870.167,564.667 871.5,565C 868.325,564.947 865.658,565.78 863.5,567.5C 858.167,567.5 852.833,567.5 847.5,567.5C 845.283,565.92 842.616,564.92 839.5,564.5C 835.555,563.509 831.555,563.176 827.5,563.5C 823.569,561.84 819.569,560.174 815.5,558.5C 812.584,553.58 808.918,549.247 804.5,545.5C 799.231,531.023 801.565,518.023 811.5,506.5C 815.165,505.003 818.498,503.003 821.5,500.5C 828.032,498.2 834.698,496.534 841.5,495.5 Z"/></g>
<g><path style="opacity:1" fill="#5c5354" d="M 1069.5,504.5 C 1069.83,504.5 1070.17,504.5 1070.5,504.5C 1070.99,506.806 1071.33,509.139 1071.5,511.5C 1070.08,509.485 1069.41,507.152 1069.5,504.5 Z"/></g>
<g><path style="opacity:1" fill="#403e3f" d="M 206.5,511.5 C 207.114,516.032 206.114,520.032 203.5,523.5C 203.973,519.267 204.973,515.267 206.5,511.5 Z"/></g>
<g><path style="opacity:1" fill="#f7a282" d="M 475.5,521.5 C 478.924,523.165 480.257,525.999 479.5,530C 479.453,532.295 478.787,534.129 477.5,535.5C 477.604,530.694 476.937,526.028 475.5,521.5 Z"/></g>
<g><path style="opacity:1" fill="#7e685c" d="M 706.5,544.5 C 703.103,542.733 699.436,541.733 695.5,541.5C 694.167,541.5 692.833,541.5 691.5,541.5C 697.323,537.199 702.323,538.199 706.5,544.5 Z"/></g>
<g><path style="opacity:1" fill="#d4d2d3" d="M 199.5,536.5 C 197.018,548.003 194.685,559.336 192.5,570.5C 193.541,559.385 195.374,548.385 198,537.5C 198.383,536.944 198.883,536.611 199.5,536.5 Z"/></g>
<g><path style="opacity:1" fill="#463731" d="M 695.5,541.5 C 699.436,541.733 703.103,542.733 706.5,544.5C 708.027,544.427 709.027,545.094 709.5,546.5C 703.893,546.948 699.226,545.281 695.5,541.5 Z"/></g>
<g><path style="opacity:1" fill="#311d18" d="M 344.5,561.5 C 334.051,561.26 323.718,561.926 313.5,563.5C 315.811,561.932 318.478,561.098 321.5,561C 329.345,560.178 337.011,560.344 344.5,561.5 Z"/></g>
<g><path style="opacity:1" fill="#f79172" d="M 887.5,559.5 C 887.279,560.735 886.612,561.735 885.5,562.5C 878.377,565.114 871.044,566.781 863.5,567.5C 865.658,565.78 868.325,564.947 871.5,565C 870.167,564.667 868.833,564.333 867.5,564C 874.059,562.231 880.726,560.731 887.5,559.5 Z"/></g>
<g><path style="opacity:1" fill="#8e7c74" d="M 263.5,560.5 C 262.375,562.129 261.041,563.629 259.5,565C 263.688,565.176 267.688,565.676 271.5,566.5C 266.786,566.827 262.12,566.493 257.5,565.5C 258.931,563.062 260.931,561.396 263.5,560.5 Z"/></g>
<g><path style="opacity:1" fill="#0b0303" d="M 691.5,541.5 C 692.833,541.5 694.167,541.5 695.5,541.5C 699.226,545.281 703.893,546.948 709.5,546.5C 711.593,547.058 713.093,548.391 714,550.5C 714.667,553.833 714.667,557.167 714,560.5C 711.255,565.878 708.589,571.211 706,576.5C 700.8,581.365 695.967,586.532 691.5,592C 685.588,595.431 679.588,598.597 673.5,601.5C 666.682,603.292 660.016,605.292 653.5,607.5C 635.04,610.421 618.04,606.921 602.5,597C 592.793,590.678 590.293,582.178 595,571.5C 598.225,566.638 602.725,564.638 608.5,565.5C 614.532,565.511 619.532,567.845 623.5,572.5C 639.907,578.654 655.574,577.154 670.5,568C 677.352,562.156 682.185,554.99 685,546.5C 686.758,544.235 688.925,542.568 691.5,541.5 Z"/></g>
<g><path style="opacity:1" fill="#f4a182" d="M 827.5,563.5 C 831.555,563.176 835.555,563.509 839.5,564.5C 842.616,564.92 845.283,565.92 847.5,567.5C 841.468,566.989 835.468,566.156 829.5,565C 828.584,564.722 827.918,564.222 827.5,563.5 Z"/></g>
<g><path style="opacity:1" fill="#848384" d="M 190.5,585.5 C 190.5,588.167 190.5,590.833 190.5,593.5C 183.833,593.5 177.167,593.5 170.5,593.5C 176.645,592.51 182.978,592.177 189.5,592.5C 189.198,589.941 189.532,587.607 190.5,585.5 Z"/></g>
<g><path style="opacity:1" fill="#fdd8bb" d="M 341.5,603.5 C 343.332,604.248 344.999,605.248 346.5,606.5C 348.804,612.471 353.137,615.804 359.5,616.5C 362.352,618.091 365.352,619.424 368.5,620.5C 371.817,621.165 375.317,621.499 379,621.5C 392.378,620.29 405.711,619.29 419,618.5C 420.356,619.38 421.856,619.714 423.5,619.5C 423.799,621.604 423.466,623.604 422.5,625.5C 419.749,627.91 417.415,630.577 415.5,633.5C 409.305,639.185 402.638,644.352 395.5,649C 385.153,658.673 376.319,669.506 369,681.5C 365.436,690.959 361.603,700.292 357.5,709.5C 354.704,717.108 351.871,724.775 349,732.5C 348.523,741.039 347.689,749.539 346.5,758C 346.504,760.361 346.837,762.527 347.5,764.5C 347.585,769.974 349.085,774.974 352,779.5C 364.387,815.911 377.554,851.911 391.5,887.5C 391.043,888.298 390.376,888.631 389.5,888.5C 385.521,888.742 381.854,889.742 378.5,891.5C 374.43,891.432 370.763,892.432 367.5,894.5C 363.542,894.251 359.876,894.918 356.5,896.5C 347.341,898.561 338.341,900.894 329.5,903.5C 322.51,905.109 315.51,906.609 308.5,908C 307.944,908.383 307.611,908.883 307.5,909.5C 297.165,910.894 287.165,913.394 277.5,917C 272.79,917.375 268.123,918.042 263.5,919C 258.696,921.213 253.696,922.713 248.5,923.5C 247.167,923.5 245.833,923.5 244.5,923.5C 238.748,923.577 233.081,924.244 227.5,925.5C 225.633,910.278 224.966,894.945 225.5,879.5C 225.5,877.167 225.5,874.833 225.5,872.5C 227.037,863.583 227.703,854.583 227.5,845.5C 227.359,839.474 227.692,833.474 228.5,827.5C 228.597,825.055 227.93,822.889 226.5,821C 228.882,814.046 230.049,806.879 230,799.5C 231.027,779.842 231.861,760.175 232.5,740.5C 232.554,733.78 232.054,727.114 231,720.5C 225.672,709.844 220.338,699.177 215,688.5C 209.19,683.021 203.69,677.188 198.5,671C 185.096,662.906 176.096,651.239 171.5,636C 171.82,634.347 172.82,633.347 174.5,633C 182.527,632.155 190.361,632.988 198,635.5C 204.509,634.74 211.009,633.906 217.5,633C 226.606,627.732 234.939,621.399 242.5,614C 246.398,611.933 250.398,610.1 254.5,608.5C 259.714,607.032 265.047,606.365 270.5,606.5C 271.492,606.328 272.158,606.662 272.5,607.5C 275.529,609.075 278.862,610.241 282.5,611C 290.144,611.399 297.644,611.565 305,611.5C 307.54,609.295 309.707,606.795 311.5,604C 318.218,603.588 324.884,602.755 331.5,601.5C 334.675,601.454 337.342,602.454 339.5,604.5C 340.183,604.137 340.85,603.804 341.5,603.5 Z"/></g>
<g><path style="opacity:1" fill="#cdb8aa" d="M 673.5,601.5 C 667.851,606.456 661.184,608.456 653.5,607.5C 660.016,605.292 666.682,603.292 673.5,601.5 Z"/></g>
<g><path style="opacity:1" fill="#b29b89" d="M 270.5,606.5 C 265.047,606.365 259.714,607.032 254.5,608.5C 259.563,605.495 264.896,604.828 270.5,606.5 Z"/></g>
<g><path style="opacity:1" fill="#d7bcaa" d="M 341.5,603.5 C 340.85,603.804 340.183,604.137 339.5,604.5C 337.342,602.454 334.675,601.454 331.5,601.5C 324.884,602.755 318.218,603.588 311.5,604C 309.707,606.795 307.54,609.295 305,611.5C 297.644,611.565 290.144,611.399 282.5,611C 278.862,610.241 275.529,609.075 272.5,607.5C 284.272,609.19 295.939,608.69 307.5,606C 308.5,605 309.5,604 310.5,603C 317.313,602.123 323.98,600.956 330.5,599.5C 335.086,598.722 338.753,600.056 341.5,603.5 Z"/></g>
<g><path style="opacity:1" fill="#c0a794" d="M 346.5,606.5 C 350.343,610.544 354.676,613.877 359.5,616.5C 353.137,615.804 348.804,612.471 346.5,606.5 Z"/></g>
<g><path style="opacity:1" fill="#e3cab7" d="M 415.5,633.5 C 417.415,630.577 419.749,627.91 422.5,625.5C 423.466,623.604 423.799,621.604 423.5,619.5C 421.856,619.714 420.356,619.38 419,618.5C 405.711,619.29 392.378,620.29 379,621.5C 375.317,621.499 371.817,621.165 368.5,620.5C 381.19,620.202 393.69,618.535 406,615.5C 411.476,616.213 416.976,616.713 422.5,617C 425.387,618.276 426.554,620.443 426,623.5C 423.289,627.712 419.789,631.046 415.5,633.5 Z"/></g>
<g><path style="opacity:1" fill="#827c7c" d="M 1090.5,607.5 C 1092.18,615.605 1092.84,623.938 1092.5,632.5C 1091.4,624.35 1090.73,616.017 1090.5,607.5 Z"/></g>
<g><path style="opacity:1" fill="#adabac" d="M 132.5,644.5 C 134.074,646.102 134.741,648.102 134.5,650.5C 132.926,648.898 132.259,646.898 132.5,644.5 Z"/></g>
<g><path style="opacity:1" fill="#e9cbb6" d="M 465.5,628.5 C 463.734,637.669 462.401,646.669 461.5,655.5C 459.508,655.672 457.842,655.005 456.5,653.5C 454.078,654.904 453.411,656.737 454.5,659C 453,659.833 451.833,661 451,662.5C 449.951,661.483 448.784,661.316 447.5,662C 442.607,668.28 436.273,672.28 428.5,674C 426.517,677.473 423.851,680.306 420.5,682.5C 419.614,683.325 419.281,684.325 419.5,685.5C 418.167,685.5 416.833,685.5 415.5,685.5C 414.95,689.27 412.95,691.937 409.5,693.5C 411.527,687.303 415.527,682.803 421.5,680C 423.461,677.037 425.794,674.371 428.5,672C 432.381,671.393 435.714,669.726 438.5,667C 444.721,660.779 450.887,654.613 457,648.5C 459.967,641.728 462.8,635.061 465.5,628.5 Z"/></g>
<g><path style="opacity:1" fill="#9d9d9b" d="M 1091.5,667.5 C 1091.67,674.508 1091.5,681.508 1091,688.5C 1090.77,689.737 1090.27,690.737 1089.5,691.5C 1090.04,683.346 1090.7,675.346 1091.5,667.5 Z"/></g>
<g><path style="opacity:1" fill="#c4c1c2" d="M 166.5,694.5 C 168.727,696.607 170.727,698.94 172.5,701.5C 168.45,701.128 166.45,698.795 166.5,694.5 Z"/></g>
<g><path style="opacity:1" fill="#605e5d" d="M 1087.5,708.5 C 1087.15,712.684 1086.48,716.684 1085.5,720.5C 1085.08,716.183 1085.75,712.183 1087.5,708.5 Z"/></g>
<g><path style="opacity:1" fill="#281a14" d="M 357.5,709.5 C 357.968,713.131 357.301,716.465 355.5,719.5C 355.479,721.602 355.813,723.768 356.5,726C 355.874,726.75 355.374,727.584 355,728.5C 354,727.167 353,727.167 352,728.5C 350.252,740.473 348.752,752.473 347.5,764.5C 346.837,762.527 346.504,760.361 346.5,758C 347.689,749.539 348.523,741.039 349,732.5C 351.871,724.775 354.704,717.108 357.5,709.5 Z"/></g>
<g><path style="opacity:1" fill="#545354" d="M 195.5,744.5 C 196.622,746.288 196.789,748.288 196,750.5C 194.192,754.395 193.026,758.395 192.5,762.5C 192.334,758.486 192.501,754.486 193,750.5C 194.663,748.842 195.496,746.842 195.5,744.5 Z"/></g>
<g><path style="opacity:1" fill="#e8c9b5" d="M 410.5,825.5 C 411.15,825.804 411.817,826.137 412.5,826.5C 413.725,830.619 415.725,834.286 418.5,837.5C 419.167,840.833 419.833,844.167 420.5,847.5C 421.354,848.522 422.354,849.355 423.5,850C 422.833,850.333 422.167,850.667 421.5,851C 423.138,853.133 423.971,855.633 424,858.5C 425.395,859.815 426.395,859.481 427,857.5C 427.495,859.473 427.662,861.473 427.5,863.5C 428.833,863.5 430.167,863.5 431.5,863.5C 431.002,866.01 430.336,868.51 429.5,871C 430.418,873.761 431.084,876.594 431.5,879.5C 429.774,877.058 428.274,874.391 427,871.5C 421.779,856 416.279,840.666 410.5,825.5 Z"/></g>
<g><path style="opacity:1" fill="#b09e93" d="M 227.5,845.5 C 227.703,854.583 227.037,863.583 225.5,872.5C 224.839,870.866 224.506,869.033 224.5,867C 225.071,860.506 225.571,854.006 226,847.5C 226.278,846.584 226.778,845.918 227.5,845.5 Z"/></g>
<g><path style="opacity:1" fill="#46312b" d="M 389.5,888.5 C 389.03,889.693 388.03,890.36 386.5,890.5C 383.86,891.095 381.193,891.428 378.5,891.5C 381.854,889.742 385.521,888.742 389.5,888.5 Z"/></g>
<g><path style="opacity:1" fill="#705d51" d="M 367.5,894.5 C 364.054,895.687 360.387,896.354 356.5,896.5C 359.876,894.918 363.542,894.251 367.5,894.5 Z"/></g>
<g><path style="opacity:1" fill="#3d2c22" d="M 329.5,903.5 C 322.929,907.231 315.596,909.231 307.5,909.5C 307.611,908.883 307.944,908.383 308.5,908C 315.51,906.609 322.51,905.109 329.5,903.5 Z"/></g>
<g><path style="opacity:1" fill="#e5c9b5" d="M 225.5,879.5 C 224.966,894.945 225.633,910.278 227.5,925.5C 233.081,924.244 238.748,923.577 244.5,923.5C 238.056,924.784 231.723,926.784 225.5,929.5C 224.261,929.058 223.261,928.391 222.5,927.5C 223.65,911.363 224.65,895.363 225.5,879.5 Z"/></g>
<g><path style="opacity:1" fill="#dfc3b0" d="M 442.5,911.5 C 444.059,913.608 445.392,915.941 446.5,918.5C 447.325,919.386 448.325,919.719 449.5,919.5C 450.736,924.067 451.402,928.734 451.5,933.5C 450.264,931.389 448.764,929.389 447,927.5C 445.81,922.095 444.31,916.761 442.5,911.5 Z"/></g>
<g><path style="opacity:1" fill="#261d19" d="M 244.5,923.5 C 245.833,923.5 247.167,923.5 248.5,923.5C 244.07,926.413 239.07,927.746 233.5,927.5C 233.64,929.124 232.973,930.29 231.5,931C 228.518,931.498 225.518,931.665 222.5,931.5C 222.5,930.167 222.5,928.833 222.5,927.5C 223.261,928.391 224.261,929.058 225.5,929.5C 231.723,926.784 238.056,924.784 244.5,923.5 Z"/></g>
<g><path style="opacity:1" fill="#fef4e8" d="M 411.5,941.5 C 413.666,944.542 414.999,947.875 415.5,951.5C 419.032,962.239 422.865,972.906 427,983.5C 428.935,986.371 430.601,989.371 432,992.5C 432.173,996.719 433.173,1000.72 435,1004.5C 436.378,1006.21 438.045,1007.55 440,1008.5C 440.483,1012.47 441.816,1016.13 444,1019.5C 447.178,1021.42 450.512,1023.09 454,1024.5C 459.573,1033.97 464.906,1043.64 470,1053.5C 501.515,1093.67 542.015,1119.83 591.5,1132C 602.187,1133.5 612.854,1135.17 623.5,1137C 637.193,1137.75 650.86,1137.42 664.5,1136C 677.268,1133.77 689.935,1131.1 702.5,1128C 710.472,1124.79 718.472,1121.79 726.5,1119C 743.592,1110.29 759.925,1100.29 775.5,1089C 783.31,1080.86 791.477,1073.02 800,1065.5C 804.721,1059.78 809.054,1053.78 813,1047.5C 814.341,1044.98 815.174,1042.31 815.5,1039.5C 823.129,1041.48 830.462,1044.31 837.5,1048C 840.353,1051.59 844.02,1053.93 848.5,1055C 854.316,1062.64 861.316,1069.14 869.5,1074.5C 872.852,1078.57 876.185,1082.57 879.5,1086.5C 881.018,1099.58 882.018,1112.58 882.5,1125.5C 884,1176.81 885,1228.14 885.5,1279.5C 670.833,1279.5 456.167,1279.5 241.5,1279.5C 241.111,1272.66 240.444,1265.99 239.5,1259.5C 237.229,1243.62 235.563,1227.62 234.5,1211.5C 234.679,1205.6 234.012,1199.93 232.5,1194.5C 230.543,1166.34 228.043,1138.34 225,1110.5C 222.681,1062.86 222.014,1015.19 223,967.5C 225.727,966.202 228.56,965.202 231.5,964.5C 233.898,964.741 235.898,964.074 237.5,962.5C 247.937,961.766 257.937,959.266 267.5,955C 274.582,954.72 281.248,953.054 287.5,950C 294.57,949.899 301.237,948.232 307.5,945C 315.061,944.441 322.395,942.941 329.5,940.5C 333.378,940.976 336.712,939.976 339.5,937.5C 341.857,937.663 344.19,937.497 346.5,937C 364.942,932.035 383.442,927.201 402,922.5C 402.833,922.667 403.667,922.833 404.5,923C 407.112,928.996 409.446,935.163 411.5,941.5 Z"/></g>
<g><path style="opacity:1" fill="#66605a" d="M 339.5,937.5 C 336.712,939.976 333.378,940.976 329.5,940.5C 332.583,938.975 335.916,937.975 339.5,937.5 Z"/></g>
<g><path style="opacity:1" fill="#655c54" d="M 411.5,941.5 C 415.091,943.782 416.424,947.116 415.5,951.5C 414.999,947.875 413.666,944.542 411.5,941.5 Z"/></g>
<g><path style="opacity:1" fill="#554e47" d="M 237.5,962.5 C 235.898,964.074 233.898,964.741 231.5,964.5C 232.99,962.72 234.99,962.054 237.5,962.5 Z"/></g>
<g><path style="opacity:1" fill="#cab29d" d="M 809.5,991.5 C 802.25,994.91 794.583,997.576 786.5,999.5C 787.903,998.069 789.569,996.902 791.5,996C 795.46,995.458 799.126,994.125 802.5,992C 804.81,991.503 807.143,991.337 809.5,991.5 Z"/></g>
<g><path style="opacity:1" fill="#7d6d61" d="M 518.5,1004.5 C 521.727,1004.68 524.727,1005.34 527.5,1006.5C 524.171,1006.78 521.171,1006.12 518.5,1004.5 Z"/></g>
<g><path style="opacity:1" fill="#c7ab91" d="M 687.5,1017.5 C 683.688,1018.32 679.688,1018.82 675.5,1019C 658.503,1019.5 641.503,1019.67 624.5,1019.5C 645.336,1018.66 666.336,1017.99 687.5,1017.5 Z"/></g>
<g><path style="opacity:1" fill="#938e8e" d="M 881.5,1033.5 C 884.089,1034.42 886.089,1036.09 887.5,1038.5C 884.911,1037.58 882.911,1035.91 881.5,1033.5 Z"/></g>
<g><path style="opacity:1" fill="#fad6ba" d="M 685.5,1054.5 C 692.841,1054.67 700.174,1054.5 707.5,1054C 709.058,1053.79 710.391,1053.29 711.5,1052.5C 728.04,1050.7 744.54,1048.03 761,1044.5C 762.167,1044.67 763.333,1044.83 764.5,1045C 750.55,1058.95 734.884,1070.61 717.5,1080C 707.397,1084.45 697.064,1088.45 686.5,1092C 679.475,1093.52 672.475,1095.02 665.5,1096.5C 651.496,1096.67 637.496,1096.5 623.5,1096C 616.335,1094.28 608.335,1093.11 599.5,1092.5C 564.541,1084.68 534.874,1067.51 510.5,1041C 559.214,1051.33 608.547,1056.16 658.5,1055.5C 667.545,1055.47 676.545,1055.14 685.5,1054.5 Z"/></g>
<g><path style="opacity:1" fill="#aba7a8" d="M 182.5,997.5 C 183.35,1020.34 184.017,1043.34 184.5,1066.5C 183.677,1063.02 183.177,1059.36 183,1055.5C 182.5,1036.17 182.333,1016.84 182.5,997.5 Z"/></g>
<g><path style="opacity:1" fill="#b89d8c" d="M 711.5,1052.5 C 710.391,1053.29 709.058,1053.79 707.5,1054C 700.174,1054.5 692.841,1054.67 685.5,1054.5C 693.986,1053.43 702.653,1052.76 711.5,1052.5 Z"/></g>
<g><path style="opacity:1" fill="#978f8a" d="M 879.5,1086.5 C 880.458,1086.95 881.292,1087.62 882,1088.5C 882.5,1100.83 882.667,1113.16 882.5,1125.5C 882.018,1112.58 881.018,1099.58 879.5,1086.5 Z"/></g>
<g><path style="opacity:1" fill="#ccaf9b" d="M 599.5,1092.5 C 608.335,1093.11 616.335,1094.28 623.5,1096C 637.496,1096.5 651.496,1096.67 665.5,1096.5C 648.338,1097.66 631.005,1097.83 613.5,1097C 610.289,1095.85 606.956,1095.18 603.5,1095C 601.934,1094.39 600.6,1093.56 599.5,1092.5 Z"/></g>
<g><path style="opacity:1" fill="#969192" d="M 948.5,1116.5 C 950.387,1118.79 951.721,1121.46 952.5,1124.5C 950.229,1122.39 948.896,1119.72 948.5,1116.5 Z"/></g>
<g><path style="opacity:1" fill="#675f5b" d="M 923.5,1151.5 C 922.521,1154.62 922.187,1157.96 922.5,1161.5C 921.189,1157.32 921.189,1152.98 922.5,1148.5C 923.386,1149.32 923.719,1150.32 923.5,1151.5 Z"/></g>
<g><path style="opacity:1" fill="#faf1e7" d="M 923.5,1151.5 C 928.892,1161.28 934.059,1171.28 939,1181.5C 943.776,1194.39 949.109,1207.05 955,1219.5C 955.89,1224.27 957.057,1228.93 958.5,1233.5C 955.15,1233.33 951.817,1233.5 948.5,1234C 945.593,1235.61 942.927,1237.44 940.5,1239.5C 938.698,1240.46 936.698,1241.12 934.5,1241.5C 932.334,1241.58 930.334,1242.25 928.5,1243.5C 927.353,1243.18 926.519,1242.52 926,1241.5C 924.959,1222.36 924.126,1203.36 923.5,1184.5C 922.793,1176.85 922.46,1169.19 922.5,1161.5C 922.187,1157.96 922.521,1154.62 923.5,1151.5 Z"/></g>
<g><path style="opacity:1" fill="#d3cac6" d="M 923.5,1184.5 C 924.126,1203.36 924.959,1222.36 926,1241.5C 926.519,1242.52 927.353,1243.18 928.5,1243.5C 930.334,1242.25 932.334,1241.58 934.5,1241.5C 931.764,1244.03 928.43,1245.37 924.5,1245.5C 923.616,1225.18 923.282,1204.85 923.5,1184.5 Z"/></g>
<g><path style="opacity:1" fill="#706860" d="M 232.5,1194.5 C 234.012,1199.93 234.679,1205.6 234.5,1211.5C 233.263,1206.04 232.596,1200.37 232.5,1194.5 Z"/></g>
<g><path style="opacity:1" fill="#c6beb6" d="M 958.5,1233.5 C 952.44,1235.19 946.44,1237.19 940.5,1239.5C 942.927,1237.44 945.593,1235.61 948.5,1234C 951.817,1233.5 955.15,1233.33 958.5,1233.5 Z"/></g>
<g><path style="opacity:1" fill="#3a322c" d="M 239.5,1259.5 C 240.444,1265.99 241.111,1272.66 241.5,1279.5C 240.833,1279.5 240.167,1279.5 239.5,1279.5C 239.5,1272.83 239.5,1266.17 239.5,1259.5 Z"/></g>
<g><path style="opacity:1" fill="#5d4c46" d="M 951.5,1274.5 C 952.209,1273.6 953.209,1273.26 954.5,1273.5C 954.5,1275.5 954.5,1277.5 954.5,1279.5C 954.167,1279.5 953.833,1279.5 953.5,1279.5C 953.923,1277.22 953.256,1275.55 951.5,1274.5 Z"/></g>
<g><path style="opacity:1" fill="#e9cdbb" d="M 951.5,1274.5 C 953.256,1275.55 953.923,1277.22 953.5,1279.5C 948.833,1279.5 944.167,1279.5 939.5,1279.5C 939.611,1278.88 939.944,1278.38 940.5,1278C 944.568,1277.89 948.235,1276.72 951.5,1274.5 Z"/></g>
</svg>
